<?xml version="1.0" encoding="UTF-8" standalone="no"?>
<!-- Created with Inkscape (http://www.inkscape.org/) -->

<svg
   width="400mm"
   height="300mm"
   viewBox="0 0 400 300"
   version="1.1"
   id="svg5"
   inkscape:version="1.2.1 (9c6d41e4, 2022-07-14)"
   sodipodi:docname="LEXiTRON_Mac.svg"
   inkscape:export-filename="/Users/nathanglenn/workspaces/personal_workspace/personal_site_astro/public/assets/portfolio/LEXiTRON_Mac.png"
   inkscape:export-xdpi="90"
   inkscape:export-ydpi="90"
   xmlns:inkscape="http://www.inkscape.org/namespaces/inkscape"
   xmlns:sodipodi="http://sodipodi.sourceforge.net/DTD/sodipodi-0.dtd"
   xmlns="http://www.w3.org/2000/svg"
   xmlns:svg="http://www.w3.org/2000/svg">
  <sodipodi:namedview
     id="namedview7"
     pagecolor="#ffffff"
     bordercolor="#666666"
     borderopacity="1.0"
     inkscape:pageshadow="2"
     inkscape:pageopacity="0.0"
     inkscape:pagecheckerboard="0"
     inkscape:document-units="mm"
     showgrid="true"
     width="400mm"
     inkscape:zoom="0.5"
     inkscape:cx="802"
     inkscape:cy="537"
     inkscape:window-width="1280"
     inkscape:window-height="747"
     inkscape:window-x="0"
     inkscape:window-y="25"
     inkscape:window-maximized="1"
     inkscape:current-layer="layer1"
     inkscape:showpageshadow="2"
     inkscape:deskcolor="#d1d1d1">
    <inkscape:grid
       type="xygrid"
       id="grid13172" />
  </sodipodi:namedview>
  <defs
     id="defs2">
    <rect
       x="464.27346"
       y="289.91483"
       width="87.118772"
       height="61.897447"
       id="rect4979" />
    <rect
       x="406.96929"
       y="292.18308"
       width="557.53302"
       height="143.11008"
       id="rect1683" />
  </defs>
  <g
     inkscape:label="Layer 1"
     inkscape:groupmode="layer"
     id="layer1">
    <text
       xml:space="preserve"
       transform="matrix(0.26458333,0,0,0.26458333,1.11321,29.970123)"
       id="text1681"
       style="font-style:normal;font-weight:normal;font-size:40px;line-height:1.25;font-family:sans-serif;white-space:pre;shape-inside:url(#rect1683);fill:#000000;fill-opacity:1;stroke:none" />
    <text
       xml:space="preserve"
       transform="matrix(0.26458333,0,0,0.26458333,1.11321,29.970123)"
       id="text4977"
       style="font-style:normal;font-weight:normal;font-size:40px;line-height:1.25;font-family:sans-serif;white-space:pre;shape-inside:url(#rect4979);fill:#000000;fill-opacity:1;stroke:none" />
    <path
       style="fill:#c20f08;stroke-width:0.264583;fill-opacity:1"
       d="m 276.49648,113.05349 c -5.50416,-2.83613 -10.67797,-3.6757 -18.01813,-2.92388 -7.00308,0.7173 -9.98481,0.78913 -11.33606,0.27308 -1.43991,-0.5499 -3.08589,-2.29448 -3.71227,-3.93464 -1.53032,-4.00709 1.5018,-7.004849 8.24247,-8.149049 2.57926,-0.43782 9.71661,-0.37162 13.46568,0.124895 3.89454,0.515783 7.97645,1.524971 9.82443,2.428934 0.75709,0.37035 2.27385,1.51136 3.37058,2.53558 1.54179,1.43986 2.21973,2.31886 2.98909,3.87555 0.91843,1.85831 0.99504,2.18952 0.99504,4.30149 0,1.55048 -0.11706,2.42922 -0.36312,2.7257 -0.66733,0.80408 -2.09483,0.47513 -5.45771,-1.25766 z"
       id="path2869" />
    <path
       style="fill:#c20f08;stroke-width:0.264583;fill-opacity:1"
       d="m 58.278861,179.19344 c -1.364881,-0.48705 -1.684914,-0.80139 -2.20657,-2.16732 -0.380617,-0.99664 -0.423475,-1.72619 -0.274666,-4.67552 0.257332,-5.10021 0.821687,-11.25193 2.274543,-24.79357 0.710375,-6.6212 1.365504,-12.93151 1.455841,-14.02292 0.28783,-3.47742 0.408581,-3.92962 1.282751,-4.80379 2.318397,-2.3184 5.317621,-1.80053 6.838578,1.18079 1.270106,2.48961 1.714476,8.64136 1.29376,17.9105 -0.708366,15.60656 -2.709939,26.13252 -5.719586,30.07836 -1.228945,1.61123 -2.859112,2.03767 -4.944651,1.29347 z"
       id="path2867" />
    <path
       style="fill:#c20f08;stroke-width:0.264583;fill-opacity:1"
       d="m 244.22384,179.53111 c -1.20882,-1.43659 -2.78488,-5.77289 -2.78444,-7.66094 2.6e-4,-1.40282 1.34839,-3.85479 3.5482,-6.45377 1.10854,-1.30969 2.44957,-3.24636 2.98006,-4.30371 0.85503,-1.70423 0.99166,-2.2599 1.20361,-4.8948 0.1315,-1.63477 0.20175,-4.48266 0.15611,-6.32864 -0.0821,-3.31891 -0.0918,-3.36561 -0.87673,-4.19079 -1.12729,-1.18512 -2.53227,-1.92586 -5.49562,-2.89742 -4.82737,-1.58268 -6.37161,-3.27835 -6.36129,-6.98508 0.007,-2.39735 0.6814,-3.88682 2.56974,-5.67273 2.32783,-2.20156 4.97649,-3.2237 8.35356,-3.2237 6.1117,0 10.59983,3.46233 11.64721,8.98515 0.42806,2.25715 0.31137,5.20441 -0.52941,13.37214 -0.81842,7.9504 -0.9742,12.38013 -0.50674,14.40866 0.41027,1.78033 1.03286,2.91446 1.66499,3.03301 2.13348,0.40011 13.54371,1.25493 16.63778,1.24645 5.23094,-0.0143 7.66754,-0.55771 9.23553,-2.05958 l 0.70325,-0.67359 -0.14393,-14.06289 c -0.15222,-14.8721 0.0579,-21.80017 1.00013,-32.9806 0.68188,-8.09094 1.49783,-15.4604 1.86442,-16.83907 0.36601,-1.376465 1.65131,-2.958691 2.7899,-3.434428 2.0792,-0.868744 5.1762,-0.09676 6.1734,1.538841 0.73758,1.209787 0.67081,2.724587 -0.26602,6.034657 -2.58456,9.13187 -3.05603,26.30516 -1.39465,50.8 0.25169,3.71078 0.46148,8.47328 0.46619,10.58333 0.008,3.40968 -0.0596,4.0056 -0.60455,5.35693 -0.78984,1.95869 -2.84781,4.21085 -4.65628,5.09565 -1.93746,0.94791 -5.26557,1.28032 -12.85282,1.2837 -4.95255,0.002 -7.12169,-0.1178 -10.6604,-0.58979 -7.75122,-1.03384 -12.38096,-0.73421 -18.66906,1.20825 -4.36208,1.34749 -4.31697,1.34484 -5.19214,0.30476 z"
       id="path2865" />
    <path
       style="fill:#c20f08;stroke-width:0.264583;fill-opacity:1"
       d="m 148.97383,179.53111 c -1.20881,-1.43659 -2.78488,-5.77289 -2.78444,-7.66094 2.7e-4,-1.40282 1.34839,-3.85479 3.54821,-6.45377 1.10854,-1.30969 2.44956,-3.24636 2.98005,-4.30371 0.85503,-1.70423 0.99167,-2.2599 1.20362,-4.8948 0.1315,-1.63477 0.20175,-4.48266 0.15611,-6.32864 -0.0821,-3.31891 -0.0918,-3.36561 -0.87674,-4.19079 -1.12728,-1.18512 -2.53227,-1.92586 -5.49562,-2.89742 -4.82736,-1.58268 -6.3716,-3.27835 -6.36129,-6.98508 0.007,-2.39735 0.6814,-3.88682 2.56974,-5.67273 2.32783,-2.20156 4.9765,-3.2237 8.35356,-3.2237 6.11171,0 10.59983,3.46233 11.64721,8.98515 0.42806,2.25715 0.31138,5.20441 -0.52941,13.37214 -0.81841,7.9504 -0.9742,12.38013 -0.50673,14.40866 0.41027,1.78033 1.03286,2.91446 1.66499,3.03301 2.13348,0.40011 13.54371,1.25493 16.63778,1.24645 5.23093,-0.0143 7.66753,-0.55771 9.23553,-2.05958 l 0.70325,-0.67359 -0.14394,-14.06289 c -0.15222,-14.8721 0.0579,-21.80017 1.00013,-32.9806 0.68188,-8.09094 1.49783,-15.4604 1.86443,-16.83907 0.366,-1.376465 1.6513,-2.958691 2.7899,-3.434428 2.0792,-0.868744 5.1762,-0.09676 6.17339,1.538841 0.73759,1.209787 0.67082,2.724587 -0.26602,6.034657 -2.58456,9.13187 -3.05603,26.30516 -1.39464,50.8 0.25169,3.71078 0.46147,8.47328 0.46619,10.58333 0.008,3.40968 -0.0596,4.0056 -0.60455,5.35693 -0.78984,1.95869 -2.84781,4.21085 -4.65629,5.09565 -1.93745,0.94791 -5.26556,1.28032 -12.85281,1.2837 -4.95256,0.002 -7.12169,-0.1178 -10.6604,-0.58979 -7.75122,-1.03384 -12.38096,-0.73421 -18.66907,1.20825 -4.36207,1.34749 -4.31697,1.34484 -5.19214,0.30476 z"
       id="path2863" />
    <path
       style="fill:#c20f08;stroke-width:0.264583;fill-opacity:1"
       d="m 320.81419,180.66252 c -4.10326,-1.34829 -6.18659,-4.8238 -6.87546,-11.46999 -0.88188,-8.50819 2.15212,-16.60831 8.00658,-21.37599 6.39747,-5.20988 14.55597,-5.91793 20.3716,-1.76798 3.56796,2.54604 6.80929,7.69313 9.84572,15.63458 1.33546,3.49275 1.59219,3.07083 1.59219,-2.61674 0,-4.54007 -0.36002,-6.91676 -1.62317,-10.71562 -1.58768,-4.77483 -3.6431,-7.9486 -6.76275,-10.4424 -4.93032,-3.9412 -9.92153,-4.79759 -14.87392,-2.55206 -3.62911,1.64551 -5.60377,3.33163 -11.12211,9.49694 -3.85162,4.3032 -5.22176,5.38699 -7.00333,5.5397 -1.77094,0.15179 -2.7645,-0.56556 -3.77542,-2.72586 -0.74631,-1.59486 -0.80021,-1.90082 -0.69332,-3.93711 0.16794,-3.19947 1.15888,-5.09712 4.29485,-8.22455 7.1369,-7.11747 18.73105,-11.47124 27.89984,-10.4768 11.20701,1.21551 18.69019,7.19279 22.26604,17.7853 1.63875,4.85444 2.25578,12.43594 1.46838,18.04226 -1.11852,7.9637 -3.6096,12.87942 -7.61113,15.01926 -1.43465,0.76719 -1.93141,0.894 -3.5223,0.8992 -2.14593,0.007 -3.36351,-0.51498 -4.98729,-2.13807 -1.29106,-1.29051 -1.965,-2.64032 -3.21643,-6.44206 -2.4878,-7.55767 -5.76294,-12.47818 -9.39107,-14.1089 -1.86655,-0.83895 -4.13676,-0.74263 -5.73124,0.24317 -1.71646,1.06119 -3.15561,3.02136 -3.83054,5.21728 -0.45286,1.47338 -0.52935,2.24653 -0.41886,4.23333 0.17428,3.13404 0.45501,3.98358 1.94607,5.88956 2.72624,3.48483 2.84996,5.5996 0.50728,8.67102 -1.35525,1.7768 -4.80944,2.96352 -6.76021,2.32253 z"
       id="path2859" />
    <path
       style="fill:#c20f08;stroke-width:0.264583;fill-opacity:1"
       d="m 215.5245,180.82389 c -1.7671,-0.8943 -2.13829,-3.54679 -1.62227,-11.59231 0.85657,-13.35482 4.21381,-40.69525 5.18306,-42.20925 0.39685,-0.61989 1.41439,-0.89655 3.29749,-0.89655 2.73725,0 4.37062,1.10468 5.74495,3.88545 1.4398,2.91324 1.48116,4.88768 0.22894,10.9283 -1.60072,7.72176 -2.29826,14.60623 -2.66769,26.32895 -0.0871,2.7649 -0.28394,5.68193 -0.43736,6.48229 -0.57817,3.01628 -2.58313,5.88805 -4.82005,6.90393 -1.26108,0.57271 -3.92803,0.66466 -4.90707,0.16919 z"
       id="path2857" />
    <path
       style="fill:#c20f08;stroke-width:0.264583;fill-opacity:1"
       d="m 39.329338,181.51446 c -1.030232,-0.52385 -2.243784,-2.08341 -2.702327,-3.47281 -0.675324,-2.04625 -0.126483,-9.98039 2.044703,-29.55858 0.790343,-7.12674 1.26763,-12.75389 1.391379,-16.40417 0.167767,-4.94868 0.25041,-5.67507 0.75578,-6.64285 0.647301,-1.23959 1.746336,-1.82943 2.925948,-1.57035 1.193553,0.26215 3.337666,2.60816 4.460409,4.88041 0.856667,1.73376 1.003983,2.30644 1.097735,4.26733 0.213512,4.4658 -0.833676,17.48141 -2.234492,27.77275 -0.366443,2.69214 -1.060653,7.97365 -1.542688,11.73671 -0.924977,7.22091 -1.023579,7.55577 -2.56336,8.70538 -0.95387,0.71217 -2.548317,0.83776 -3.633087,0.28618 z"
       id="path2263" />
    <g
       id="g444"
       transform="translate(0,-1.5874997)">
      <g
         id="g429">
        <path
           style="stroke-width:0.0792643"
           d="m 75.642106,130.257 c 5.342421,-7.65696 13.459085,-7.86304 15.718123,-7.86304 5.960686,0 10.843381,3.64617 13.974321,3.64617 3.28947,0 7.65694,-3.44009 12.89631,-3.44009 9.86051,0 19.87952,8.17217 19.87952,23.58117 0,9.60685 -3.70165,19.72891 -8.28312,26.24444 -3.95531,5.54852 -7.39538,10.06658 -12.32563,10.06658 -4.93025,0 -7.08624,-3.23399 -13.14996,-3.23399 -6.22226,0 -7.609376,3.13095 -12.999365,3.13095 -5.38998,0 -8.933094,-4.87476 -12.325609,-9.75745 -3.804697,-5.5485 -5.397913,-10.99397 -5.445471,-11.24762 0.309131,-0.10303 10.637285,-4.26442 10.637285,-16.02726 0,-10.16962 -8.116674,-14.74319 -8.576404,-15.09986 z"
           id="path9512" />
        <g
           id="g343">
          <g
             id="g338">
            <g
               id="g334">
              <path
                 style="fill:#c20f08;fill-opacity:1;stroke:#000000;stroke-width:2.76992"
                 d="m 114.78562,181.86652 c -0.90694,-0.26118 -2.80325,-0.94059 -4.21404,-1.5098 -2.20252,-0.88867 -3.08298,-1.03741 -6.22944,-1.0524 -3.40455,-0.0162 -3.90415,0.0796 -7.046031,1.35131 -7.361804,2.97979 -11.226206,1.43001 -17.145551,-6.87607 -2.098728,-2.94496 -4.351297,-7.09009 -5.667336,-10.42891 l -0.707314,-1.79446 1.908144,-1.08114 c 2.266888,-1.28439 5.718143,-4.80425 6.810952,-6.94634 2.530697,-4.96057 2.45612,-11.74285 -0.182426,-16.59073 -1.024931,-1.88313 -3.281278,-4.43366 -5.246818,-5.93088 l -1.259316,-0.95927 2.188009,-2.1358 c 3.526149,-3.44201 8.102504,-5.25052 13.286222,-5.25052 2.307372,0 3.568245,0.28491 8.233988,1.86056 6.221277,2.10097 6.143627,2.09975 11.183527,0.17645 4.76247,-1.81743 6.88043,-2.1718 10.04528,-1.68076 3.91878,0.60802 7.54718,2.4941 10.49111,5.45338 4.27487,4.29717 6.23202,9.19815 6.53313,16.35984 0.41847,9.95298 -3.07479,20.68187 -9.5635,29.3725 -3.40553,4.56119 -6.0117,6.92091 -8.44659,7.64785 -2.14568,0.6406 -2.79336,0.64258 -4.972,0.0152 z"
                 id="path11792" />
            </g>
          </g>
        </g>
      </g>
      <g
         id="g433">
        <path
           style="stroke-width:0.0804871"
           d="m 118.31244,115.78331 c -2.65608,3.29192 -7.2519,5.73875 -10.90601,5.73875 -0.41853,0 -0.83705,-0.0565 -1.09463,-0.10454 -0.0484,-0.20125 -0.15289,-0.82902 -0.15289,-1.45682 0,-4.17729 2.14095,-8.29824 4.43484,-10.906 2.9217,-3.38852 7.76702,-5.94803 11.83969,-6.10092 0.10454,0.46679 0.1529,1.04632 0.1529,1.61777 0,4.12095 -1.77073,8.24188 -4.2739,11.21186 z"
           id="path9053" />
        <path
           style="fill:#008000;fill-opacity:1;stroke:#000000;stroke-width:2.76992"
           d="m 106.3619,119.86699 c 0.015,-4.90789 3.56607,-10.88886 8.2405,-13.87941 2.10926,-1.34943 5.65874,-2.74727 6.97606,-2.74727 0.77485,0 0.90158,0.16827 0.89693,1.19092 -0.009,2.06234 -1.06731,5.80195 -2.29398,8.10886 -2.40677,4.52623 -7.5045,8.22237 -11.83571,8.58155 l -1.98815,0.16487 z"
           id="path11905" />
      </g>
    </g>
    <rect
       style="fill:none;stroke:none;stroke-width:2.05541;stroke-dasharray:2.05541, 2.05541;-inkscape-stroke:none;stop-color:#000000"
       id="rect1291"
       width="47.095833"
       height="165.62917"
       x="79.375"
       y="70.379166" />
    <rect
       style="fill:none;stroke:none;stroke-width:2.05541;stroke-dasharray:2.05541, 2.05541;-inkscape-stroke:none;stop-color:#000000"
       id="rect1293"
       width="66.674995"
       height="135.99582"
       x="73.554169"
       y="83.079163" />
    <rect
       style="fill:none;stroke:none;stroke-width:2.05541;stroke-dasharray:2.05541, 2.05541;-inkscape-stroke:none;stop-color:#000000"
       id="rect1295"
       width="83.60833"
       height="124.88333"
       x="20.108334"
       y="96.837502" />
    <rect
       style="fill:none;stroke:none;stroke-width:2.05541;stroke-dasharray:2.05541, 2.05541;-inkscape-stroke:none;stop-color:#000000;stroke-opacity:1"
       id="rect1299"
       width="58.737499"
       height="83.60833"
       x="78.845833"
       y="121.70833" />
  </g>
</svg>
